/* XPM */
static const char *color4_xpm[] = {
"16 16 2 1",
"a c #00DF00",
"b c #00D000",
"bbbbbbbbbbbbbbbb",
"bbbbbbbbbbbbbbbb",
"bbbbbbbbbbbbbbbb",
"bbbbbbbbbbbbbbbb",
"bbbbbbbbbbbbbbbb",
"bbbbbbbbbbbbbbbb",
"bbbbbbbbbbbbbbbb",
"bbbbbbbbbbbbbbbb",
"aaaaaaaaaaaaaaaa",
"aaaaaaaaaaaaaaaa",
"aaaaaaaaaaaaaaaa",
"aaaaaaaaaaaaaaaa",
"aaaaaaaaaaaaaaaa",
"aaaaaaaaaaaaaaaa",
"aaaaaaaaaaaaaaaa",
"aaaaaaaaaaaaaaaa"
};
