/* XPM */
static const char *bright1d_xpm[] = {
"16 16 2 1",
"a c #FFF8FF",
"b c #00FF00",
"aaaaaaaaaaaaaaaa",
"aaaaaaaaaaaabaaa",
"aaaaaaaaaaabbbaa",
"aaaaaaaaaabbbaaa",
"aaaaaaaaaabbbaaa",
"aaaaaaaaaabbbaaa",
"aaaaaaaaabbbaaaa",
"abaaaaaaabbbaaaa",
"abbaaaaabbbaaaaa",
"aabbaaaabbbaaaaa",
"aabbbaabbbbaaaaa",
"aaabbbbbbbaaaaaa",
"aaaabbbbbaaaaaaa",
"aaaaabbbaaaaaaaa",
"aaaaaaaaaaaaaaaa",
"aaaaaaaaaaaaaaaa"
};
