/* XPM */
static const char *color5_xpm[] = {
"16 16 2 1",
"a c #00D0D0",
"b c #00F8FF",
"aaaaaaaaaaaaaaaa",
"aaaaaaaaaaaaaaaa",
"aaaaaaaaaaaaaaaa",
"aaaaaaaaaaaaaaaa",
"aaaaaaaaaaaaaaaa",
"aaaaaaaaaaaaaaaa",
"aaaaaaaaaaaaaaaa",
"aaaaaaaaaaaaaaaa",
"bbbbbbbbbbbbbbbb",
"bbbbbbbbbbbbbbbb",
"bbbbbbbbbbbbbbbb",
"bbbbbbbbbbbbbbbb",
"bbbbbbbbbbbbbbbb",
"bbbbbbbbbbbbbbbb",
"bbbbbbbbbbbbbbbb",
"bbbbbbbbbbbbbbbb"
};
