/* XPM */
static const char *flip_y_xpm[] = {
"16 16 4 1",
"a c #000000",
"b c #FFFFFF",
"c c #00FFFF",
"d c #FF00FF",
"aaaaaaaaaaaaaaaa",
"aaaaaaaaaaaaaaaa",
"aaaaaaaaaaaaaaaa",
"bbbaaaaaaaacaaac",
"baabaaaaaaacaaac",
"baaabaaaaaacaaca",
"baaabaadaaacaaca",
"baabaaaadaacccaa",
"bbbaadddddacaaca",
"baabaaaadaacaaac",
"baabaaadaaacaaac",
"baaabaaaaaacaaca",
"baaabaaaaaacccaa",
"aaaaaaaaaaaaaaaa",
"aaaaaaaaaaaaaaaa",
"aaaaaaaaaaaaaaaa",
};
