/* XPM */
static const char *flip_x_xpm[] = {
"16 16 4 1",
"a c #000000",
"b c #FFFFFF",
"c c #FF00FF",
"d c #00FFFF",
"aaaaaaaaaaaaaaaa",
"aaaaaaaaaaaaaaaa",
"aaaaaaaaaaaaaaaa",
"bbbaaaaaaaaaaddd",
"baabaaaaaaaadaad",
"baaabaaaaaadaaad",
"baaabaacaaadaaad",
"baabaaaacaaadaad",
"bbbaacccccaaaddd",
"baabaaaacaaadaad",
"baabaaacaaaadaad",
"baaabaaaaaadaaad",
"baaabaaaaaadaaad",
"aaaaaaaaaaaaaaaa",
"aaaaaaaaaaaaaaaa",
"aaaaaaaaaaaaaaaa",
};
