/* XPM */
static const char *fra_next_xpm[] = {
"16 16 4 1",
"  c None",
"a c #FFFF20",
"b c #FFFFFF",
"d c #000000",
"                ",
"  d         dddd",
"  dd        daad",
"  dbd       daad",
"  dbbbd     daad",
"  dbbbbd    daad",
"  dbbbbbd   daad",
"  dbbbbbbbd daad",
"  dbbbbbbbd daad",
"  dbbbbbd   daad",
"  dbbbbd    daad",
"  dbbbd     daad",
"  dbd       daad",
"  dd        daad",
"  d         dddd",
"                ",
};
