/* XPM */
static const char *inv_col[] = {
"16 16 3 1",
"  c None",
"a c #FF0000",
"b c #00FFFF",
"aaaaaaaaaaaaaaaa",
"aaaaaaaaaaaaaaaa",
"bbbabaaaababaaab",
"abaabaaaababaaab",
"abaabbaaababaaab",
"abaabbaaababaaab",
"abaababaabaababa",
"abaababaabaababa",
"abaabaababaababa",
"abaabaababaababa",
"abaabaaabbaaabaa",
"abaabaaabbaaabaa",
"abaabaaaabaaabaa",
"bbbabaaaabaaabaa",
"aaaaaaaaaaaaaaaa",
"aaaaaaaaaaaaaaaa",
};
