/* XPM */
static const char *rotation_down_xpm[] = {
"16 16 3 1",
"  c None",
"a c #00FFFF",
"b c #FFFFFF",
"    bb  bb      ",
"   bb    bb     ",
"                ",
"  bb     aa     ",
"  bb     aa     ",
"         aa     ",
"         aa     ",
"  bb     aa     ",
"  bb     aa     ",
"      aaaaaaaa  ",
"       aaaaaa   ",
"  bb    aaaa    ",
"  bb     aa     ",
"                ",
"   bb    bb     ",
"    bb  bb      ",
};
