/* XPM */
static const char * sevenup_xpm[] = {
"32 32 256 2",
". 	c #242624",
"+ 	c #44914C",
"@ 	c #1C562C",
"# 	c #446A64",
"$ 	c #9CA6AC",
"% 	c #841A1C",
"& 	c #28723C",
"* 	c #D4D6D4",
"= 	c #54564C",
"- 	c #2C524C",
"; 	c #19362C",
"> 	c #748E8C",
", 	c #EAEEEC",
"' 	c #8C363C",
") 	c #4C7664",
"! 	c #B4C2BC",
"~ 	c #1C6334",
"{ 	c #6C363C",
"] 	c #184634",
"^ 	c #24624C",
"/ 	c #57A25C",
"( 	c #B4221C",
"_ 	c #848184",
": 	c #34863C",
"< 	c #641C24",
"[ 	c #D8E6EC",
"} 	c #647A7C",
"| 	c #84A69C",
"1 	c #F3FAF4",
"2 	c #1F6A3C",
"3 	c #203E3C",
"4 	c #CACED4",
"5 	c #9CB2AC",
"6 	c #34624C",
"7 	c #347254",
"8 	c #589274",
"9 	c #1C523C",
"0 	c #B4322C",
"a 	c #3C2624",
"b 	c #E4E2DC",
"c 	c #949694",
"d 	c #ECEEFC",
"e 	c #C2CACC",
"f 	c #C0261C",
"g 	c #4C9A54",
"h 	c #944644",
"i 	c #B1B9BC",
"j 	c #9C2624",
"k 	c #194134",
"l 	c #1B6444",
"m 	c #1C483C",
"n 	c #5CB254",
"o 	c #4B915C",
"p 	c #2C7A3C",
"q 	c #2B5E4C",
"r 	c #8C9A94",
"s 	c #498564",
"t 	c #1A5B3C",
"u 	c #845E64",
"v 	c #8C181C",
"w 	c #D7D9E4",
"x 	c #ECF6F4",
"y 	c #9C3634",
"z 	c #BFC3CC",
"A 	c #68827C",
"B 	c #E9F0F4",
"C 	c #5CA66C",
"D 	c #B5B3B4",
"E 	c #396B4C",
"F 	c #19312C",
"G 	c #216B4C",
"H 	c #4FAA5C",
"I 	c #C02A2C",
"J 	c #44964C",
"K 	c #2A3834",
"L 	c #1E6B44",
"M 	c #275E3C",
"N 	c #24764C",
"O 	c #687874",
"P 	c #3B854C",
"Q 	c #582A2C",
"R 	c #E5EAEC",
"S 	c #3A4244",
"T 	c #C22A24",
"U 	c #345E4C",
"V 	c #841E1C",
"W 	c #D7DEDC",
"X 	c #7C423C",
"Y 	c #C0C6C4",
"Z 	c #1A653C",
"` 	c #1C4E2C",
" .	c #AC2A2C",
"..	c #9CAEA4",
"+.	c #A0B3B4",
"@.	c #41655C",
"#.	c #397D54",
"$.	c #34322C",
"%.	c #266544",
"&.	c #3C4A44",
"*.	c #8A9EA4",
"=.	c #748A7C",
"-.	c #213234",
";.	c #509254",
">.	c #5C726C",
",.	c #A0AEAC",
"'.	c #257544",
").	c #1B3934",
"!.	c #74968C",
"~.	c #A92424",
"{.	c #9C7E84",
"].	c #A2A4A4",
"^.	c #F2FBFC",
"/.	c #21423C",
"(.	c #C02624",
"_.	c #1C4E3C",
":.	c #7C6E6C",
"<.	c #708384",
"[.	c #F4F2F4",
"}.	c #3C8A4C",
"|.	c #1F5E34",
"1.	c #D2D8DC",
"2.	c #3C5654",
"3.	c #F4EFEC",
"4.	c #597774",
"5.	c #BCBFC4",
"6.	c #2C6254",
"7.	c #54A364",
"8.	c #E4E4EC",
"9.	c #687E7C",
"0.	c #8C5A5C",
"a.	c #942E3C",
"b.	c #744E54",
"c.	c #54726C",
"d.	c #9C2224",
"e.	c #648674",
"f.	c #949EA4",
"g.	c #5C323C",
"h.	c #946264",
"i.	c #AC8A8C",
"j.	c #2C7E4C",
"k.	c #7C1E2C",
"l.	c #747274",
"m.	c #74666C",
"n.	c #AC3E34",
"o.	c #44764C",
"p.	c #4C8654",
"q.	c #DCEAE4",
"r.	c #848684",
"s.	c #C4D2CC",
"t.	c #DDDEE4",
"u.	c #6C2A34",
"v.	c #145234",
"w.	c #849294",
"x.	c #D4D2DC",
"y.	c #346454",
"z.	c #302A2C",
"A.	c #589E5C",
"B.	c #BCBAC4",
"C.	c #2C4A44",
"D.	c #54866C",
"E.	c #A8383C",
"F.	c #741E24",
"G.	c #884244",
"H.	c #347E5C",
"I.	c #F2F6FC",
"J.	c #48965C",
"K.	c #B4BAB4",
"L.	c #8C4E54",
"M.	c #A89EA4",
"N.	c #94A6A4",
"O.	c #55AA64",
"P.	c #2C3234",
"Q.	c #ACAEB4",
"R.	c #849694",
"S.	c #2C4E44",
"T.	c #1D2A2C",
"U.	c #409054",
"V.	c #A4AAB4",
"W.	c #681E2C",
"X.	c #1C5244",
"Y.	c #DCE3E4",
"Z.	c #307C44",
"`.	c #2C5D54",
" +	c #889D9C",
".+	c #1C5E44",
"++	c #3C6E54",
"@+	c #246A54",
"#+	c #245D44",
"$+	c #348254",
"%+	c #546664",
"&+	c #841924",
"*+	c #3C524C",
"=+	c #84928C",
"-+	c #94363C",
";+	c #547664",
">+	c #2C624C",
",+	c #348A44",
"'+	c #74767C",
")+	c #2C6B3C",
"!+	c #2C3A3C",
"~+	c #3C7654",
"{+	c #CCCCCC",
"]+	c #244034",
"^+	c #2C463C",
"/+	c #5CAF5C",
"(+	c #8C1A24",
"_+	c #CCC6CC",
":+	c #24302C",
"<+	c #2C6E44",
"[+	c #747674",
"}+	c #8C3E3C",
"|+	c #24663C",
"1+	c #ACB3B4",
"2+	c #6C6E6C",
"3+	c #B42624",
"4+	c #FCFEFC",
"5+	c #CC2624",
"6+	c #8C6A6C",
"7+	c #DCD6DC",
"8+	c #C4C2C4",
"9+	c #245634",
"0+	c #446654",
"a+	c #3C262C",
"b+	c #842224",
"c+	c #499654",
"d+	c #ECEAF4",
"e+	c #385E54",
"f+	c #1A4E34",
"g+	c #348A54",
"h+	c #ACB2AC",
"i+	c #AC3634",
"j+	c #5CAA5C",
"k+	c #2C423C",
"l+	c #747E7C",
"m+	c #547274",
"n+	c #9C222C",
"o+	c #3C7E4C",
"p+	c #84868C",
"q+	c #447E5C",
"r+	c #3C3234",
"s+	c #A4AAAC",
"t+	c #24763C",
"u+	c #2E564C",
"v+	c #143A2C",
"w+	c #7C928C",
"x+	c #E4F2EC",
"y+	c #843A3C",
"z+	c #447A64",
"A+	c #174A34",
"B+	c #21664C",
"C+	c #5CA65C",
"D+	c #246E3C",
"E+	c #CAD2D4",
"F+	c #2C7654",
"G+	c #1D563C",
"H+	c #F3F2FC",
"9+o.9+` E C.^+*+^+/.k+/.3 k+/.k ^+m ] m _.k A+m ] ] m ] ] A+] A+",
"M M p.)+@...1++.h+h+1+5 Q././.k+/.X.t G+9 %.9 9 #+f+_.G+f+f+9 G+",
";.%.|.8 9.8+8+8+8+Y ! 8+8+Q.s+$ l+q .+%.t G+^ t G+l G+G+t v.G+++",
")+o %.U N.4 {+e {+{+E+{+E+{+{+4 {+e+t l l l .+B+t .+B+t t l t E ",
"|+'.;.0+4 * x.* * * * 1.* 1.7+E+Y q L l G G l l l .+Z l t t G ~+",
"+ Z o+=.1.1.W 1.t.t.W t.t.Y.1.w  +>+G G L L G Z L L l L l t l H.",
"A.Z.q i b Y.Y.Y.Y.Y.8.[ Y.[ [ Y.>.G %.G G L L G L L L l G l Z #.",
"Z / Y.t.B B B B R f. +R.B , B $ B+N B+%.F+L L G L l L L Z B+l N ",
"L <+R , B x B H l l o Z.*.*.*.L `.q N y.>+~+^ q q q #+^ .+.+G H.",
"J l 3.3.B B , 7./+2 ~ C 2 Z #.}.'.`.q N q >+N q c.m+>.t L l q s ",
"C+.+H+[.I.H+L Z Z.O.2 Z H Z l '.}.'.`.q N q L '.V.B B s+t L > D.",
"L B ^.^.I.4+H 2 l }.+ l & c+B+l '.P '.`.q N q D+f.I.I.B t I.x s+",
"G 5.B x ^.1 R /+Z.t 7.t+Z $+7. +w.> m+<.} <.9.# K.1 x l l 1 B x ",
"U.z B x ^.H+H+../+L Z O.D+^ <.B q.[.d t.d 4+q.`.e I.x+G L ^.d I.",
"n 5.8.8.H+4+4+4+4+4+4+B [ l 2+b b H+H+1.H+^.5.`.Y.1 B .+i ^.x x ",
"t+n B.8.x x 1 1 1 1 4+4+4+4+> [.x+I.^.B I.^.N.@.x I.R v.z ^.^.| ",
"l ,+/ i 8.8.1 ^.1 1 6+X }+=  +H+^.,.2 Z #.}.'.9.^.x E+G+Y.^.x+!.",
"}.l g P B.B.8.t.8.h.i+T I E.m.[.x q.}.>+l '.}.r I.H+5 #+R ^., c.",
"/+& Z C+D+B+! 5.i.n.5+5+T f {.[.B e @.}.>+>+F+Q.x B  +9.8.x s.e.",
"p C+2 l 7.0+;.7.n.3+T 5+f T M.3.d+B B 1.N q >+e B R <. +B , +.q+",
"Z }.g ~ & O.D+J.3+T (.5+f I Q.R [ R R K.q + q W R [ %+! 8.Y.w+s ",
"P t ;.: #+g O.D+ .(.(.(.(.y _+b Y.4.f+7 '.q N t.Y.t._+t.t.t.) 8 ",
"/ 2 |.J./+>+o h T (.(.(.(.G.* W 1.] Z |.7 #+t+@.W 1.1.1.E+..t s ",
"|.A.|+t c+L P -+( 3+~.(.( 0.4 E+5.3 ] Z G+N #+e+E+* 1.1...6 #+o.",
"|.M c+u+P /+i a.3+~.( ~.3+u z e 8+_+{+e i G+7 u+q ,._+_+<.t v.u+",
"D @ t ;.q ! D ' ~.j ~.d.( b.5.5.5.8+B.5.=+t G+~+q 1+B.5.y.G+t 7 ",
"].1+D Q.1+h+1+G.d.d.j j d.' M.D Q.Q.1++.2.G+v.v.} D D Q.u+G+f+t ",
"c M.].].].M.$ b.(+v v % v b+{ :.=+w.A *+3 ] f+A+.+<.9.<.C.A+f+A+",
"p+c c c c c c _ Q F.&+&+&+&+k.g.k m 3 /./.3 k 3 /.k k k m k ] A+",
"'+_ p+_ p+_ p+O r+Q W.< W.< Q $.).).3 k 3 k 3 k 3 ).k k ; k ).v+",
"S l.l.[+'+[+:.]+F . z.a a+z.T.).; F F -.F -.F F -.-.F F -.F ; ; ",
"&.S S S S S k+!+K !+K K P.P.K -.-.F -.:+F :+F T.T.T.T.F T.T.T.T."};
