/* XPM */
static const char *transp_xpm[] = {
"16 16 2 1",
"a c Black",
"b c #FFFFFF",
"bbbbbbbbbbbbbbbb",
"bbbbbbbbbbbbbbbb",
"bbaaaaaaaaaaaabb",
"bbaaaaaaaaaaaabb",
"bbaaaaaaaaaaaabb",
"bbaaaaaaaaaaaabb",
"bbbbbbaaaabbbbbb",
"bbbbbbaaaabbbbbb",
"bbbbbbaaaabbbbbb",
"bbbbbbaaaabbbbbb",
"bbbbbbaaaabbbbbb",
"bbbbbbaaaabbbbbb",
"bbbbbbaaaabbbbbb",
"bbbbbbaaaabbbbbb",
"bbbbbbbbbbbbbbbb",
"bbbbbbbbbbbbbbbb"
};
